<svg width="290" height="290" viewBox="0 0 290 290" fill="none" xmlns="http://www.w3.org/2000/svg">
  <path
    d="M168.642 85.9971C170.502 89.0434 171.403 90.7304 172.622 93.9992C181.642 90.9971 191.642 90.4971 206.642 90.4971C206.642 90.4971 213.7 80.6863 228.642 81.9971C257.143 84.4971 253.142 117.497 253.142 117.497C263.642 122.997 269.142 130.995 271.142 144.497C271.142 144.497 290.142 148.497 289.142 166.997C287.924 189.527 267.642 189.497 267.642 189.497L235.142 189.997V199.497C235.142 199.497 235.142 223.997 209.642 225.497C196.665 226.26 187.642 215.997 187.642 215.997C185.642 221.497 179.642 229.997 170.142 234.497L48.1422 286.999C48.1422 286.999 27.1421 293.103 11.6422 277.497C-3.85763 261.892 2.14258 243.497 2.14258 243.497L55.6422 118.997C57.6422 114.497 61.6422 110.495 63.6422 108.997C63.6422 108.997 37.1422 105.497 37.1422 81.4971C37.1422 61.9971 56.1422 54.9971 59.1422 54.9971H73.1422C73.1422 35.4971 82.1422 22.9971 100.622 18.9992C100.622 18.9992 104.642 1 123.142 1C141.642 1 145.142 18.9992 145.142 22.4975V37.4975H157.642C161.142 37.4975 180.142 40.9971 181.142 62.9971C181.915 79.9971 168.642 85.9971 168.642 85.9971Z"
    fill="black"
  />
  <circle cx="64.6426" cy="81.4971" r="9" fill="#886CE4" />
  <circle cx="154.143" cy="63.4971" r="9" fill="#00BCF2" />
  <circle cx="145.143" cy="99.4971" r="9" fill="#FFF100" />
  <circle cx="208.143" cy="198.497" r="9" fill="#FFF100" />
  <circle cx="226.142" cy="108.497" r="9" fill="#F03A17" />
  <path
    fill-rule="evenodd"
    clip-rule="evenodd"
    d="M122.269 19.0129C124.746 18.8065 126.921 20.6469 127.127 23.1236C127.395 26.3339 127.395 29.1381 127.328 31.1472C127.294 32.1542 127.243 32.9678 127.2 33.5404C127.178 33.8268 127.158 34.0534 127.143 34.2143C127.136 34.2947 127.129 34.3588 127.124 34.4057L127.121 34.4411C126.762 38.289 125.111 41.284 122.696 43.2791C120.367 45.2028 117.573 45.9973 115.143 45.9973H104.643C104.186 45.9973 103.07 46.2599 102.124 47.0371C101.342 47.6792 100.643 48.6848 100.643 50.4973C100.643 52.3026 101.333 53.28 102.126 53.9091C103.077 54.6634 104.32 54.9973 105.143 54.9973H112.643C114.108 54.9973 117.439 55.3197 120.578 57.0636C124.017 58.974 127.143 62.6059 127.143 68.4973C127.143 74.2462 124.285 77.8989 120.924 79.876C117.877 81.6687 114.626 81.9973 113.143 81.9973H105.643C104.918 81.9973 103.463 82.2929 102.317 83.0805C101.388 83.7193 100.643 84.6526 100.643 86.4973C100.643 88.3421 101.388 89.2754 102.317 89.9141C103.463 90.7017 104.918 90.9973 105.643 90.9973H113.643C120.135 90.9973 126.053 95.3505 127.535 102.021C127.577 102.209 127.607 102.399 127.624 102.59L123.143 102.997C127.624 102.59 127.624 102.59 127.624 102.59L127.625 102.6L127.627 102.618L127.632 102.677C127.636 102.726 127.642 102.796 127.649 102.885C127.663 103.062 127.682 103.314 127.703 103.628C127.745 104.255 127.795 105.135 127.828 106.165C127.893 108.189 127.9 110.934 127.615 113.494C127.341 115.964 125.116 117.744 122.646 117.47C120.176 117.195 118.396 114.97 118.67 112.5C118.886 110.561 118.892 108.306 118.832 106.455C118.803 105.547 118.759 104.771 118.723 104.226C118.709 104.023 118.697 103.853 118.687 103.721C118.079 101.526 116.058 99.9973 113.643 99.9973H105.643C103.368 99.9973 100.073 99.2929 97.2182 97.3305C94.1473 95.2193 91.6426 91.6526 91.6426 86.4973C91.6426 81.3421 94.1473 77.7754 97.2182 75.6641C100.073 73.7017 103.368 72.9973 105.643 72.9973H113.143C113.659 72.9973 115.158 72.826 116.361 72.1186C116.901 71.8007 117.305 71.4208 117.585 70.9561C117.855 70.5084 118.143 69.7647 118.143 68.4973C118.143 67.2863 117.852 66.5803 117.573 66.1446C117.275 65.6801 116.829 65.2762 116.207 64.931C114.846 64.1749 113.177 63.9973 112.643 63.9973H105.143C102.465 63.9973 99.2077 63.0813 96.5338 60.9606C93.702 58.7146 91.6426 55.1921 91.6426 50.4973C91.6426 45.8099 93.6929 42.3155 96.4112 40.0825C98.9651 37.9848 102.099 36.9973 104.643 36.9973H115.143C115.712 36.9973 116.418 36.7918 116.964 36.3405C117.416 35.9669 118.012 35.2245 118.161 33.5899C118.164 33.5604 118.167 33.5309 118.17 33.5014L118.172 33.485C118.174 33.463 118.178 33.4245 118.183 33.3702C118.193 33.2615 118.208 33.0897 118.226 32.8605C118.26 32.4018 118.304 31.7155 118.333 30.8474C118.391 29.1065 118.391 26.6607 118.158 23.871C117.952 21.3943 119.792 19.2193 122.269 19.0129Z"
    fill="#00BCF2"
  />
  <path
    fill-rule="evenodd"
    clip-rule="evenodd"
    d="M172.158 166.623C171.951 169.1 173.792 171.275 176.269 171.482C179.479 171.749 182.283 171.749 184.292 171.682C185.299 171.649 186.113 171.598 186.685 171.555C186.972 171.533 187.198 171.513 187.359 171.498C187.44 171.49 187.504 171.484 187.551 171.479L187.586 171.475C191.434 171.117 194.429 169.466 196.424 167.051C198.348 164.722 199.142 161.928 199.142 159.497V148.997C199.142 148.54 199.405 147.425 200.182 146.478C200.824 145.697 201.83 144.997 203.642 144.997C205.448 144.997 206.425 145.688 207.054 146.481C207.808 147.432 208.142 148.675 208.142 149.497V156.997C208.142 158.462 208.465 161.794 210.209 164.932C212.119 168.371 215.751 171.497 221.642 171.497C227.391 171.497 231.044 168.64 233.021 165.279C234.814 162.231 235.142 158.981 235.142 157.497V149.997C235.142 149.272 235.438 147.817 236.226 146.671C236.864 145.742 237.798 144.997 239.642 144.997C241.487 144.997 242.42 145.742 243.059 146.671C243.847 147.817 244.142 149.272 244.142 149.997V157.997C244.142 160.879 244.78 163.835 246.484 166.34C248.243 168.928 250.892 170.662 254.166 171.39C254.245 171.407 254.323 171.423 254.403 171.436L255.142 166.997C254.403 171.436 254.403 171.436 254.404 171.436L254.406 171.436L254.418 171.438L254.442 171.442L254.516 171.454C254.577 171.464 254.66 171.476 254.764 171.491C254.972 171.522 255.264 171.562 255.628 171.605C256.352 171.693 257.369 171.796 258.573 171.865C260.94 172 264.208 172.013 267.447 171.424C269.893 170.98 271.514 168.637 271.07 166.192C270.625 163.747 268.283 162.125 265.837 162.57C263.577 162.981 261.095 162.994 259.087 162.879C258.103 162.823 257.276 162.739 256.704 162.67C256.419 162.636 256.199 162.605 256.058 162.585C256.035 162.582 256.015 162.579 255.996 162.576C254.852 162.297 254.279 161.798 253.926 161.279C253.504 160.659 253.142 159.615 253.142 157.997V149.997C253.142 147.722 252.438 144.427 250.476 141.573C248.364 138.502 244.798 135.997 239.642 135.997C234.487 135.997 230.92 138.502 228.809 141.573C226.847 144.427 226.142 147.722 226.142 149.997V157.497C226.142 158.014 225.971 159.513 225.264 160.715C224.946 161.256 224.566 161.66 224.101 161.94C223.653 162.209 222.91 162.497 221.642 162.497C220.431 162.497 219.725 162.207 219.29 161.927C218.825 161.63 218.421 161.183 218.076 160.562C217.32 159.201 217.142 157.532 217.142 156.997V149.497C217.142 146.819 216.226 143.562 214.106 140.888C211.86 138.056 208.337 135.997 203.642 135.997C198.955 135.997 195.46 138.047 193.228 140.766C191.13 143.32 190.142 146.454 190.142 148.997V159.497C190.142 160.066 189.937 160.772 189.486 161.319C189.112 161.771 188.369 162.367 186.735 162.516C186.705 162.518 186.676 162.521 186.646 162.524L186.63 162.526C186.608 162.528 186.57 162.532 186.515 162.537C186.407 162.548 186.235 162.563 186.006 162.58C185.547 162.615 184.86 162.658 183.992 162.687C182.252 162.745 179.806 162.745 177.016 162.513C174.539 162.306 172.364 164.147 172.158 166.623Z"
    fill="#F03A17"
  />
  <path
    fill-rule="evenodd"
    clip-rule="evenodd"
    d="M129.711 160.715C134.598 133.021 161.003 108.997 194.642 108.997C197.128 108.997 199.142 111.012 199.142 113.497C199.142 115.982 197.128 117.997 194.642 117.997C165.282 117.997 142.687 138.973 138.574 162.279C138.142 164.727 135.808 166.36 133.36 165.929C130.913 165.497 129.279 163.162 129.711 160.715Z"
    fill="#886CE4"
  />
  <path
    d="M43.4918 269.218C29.4355 275.192 15.2439 261.04 21.1783 246.967L71.5166 127.596C76.2023 116.485 90.6459 113.649 99.1849 122.164L168.077 190.864C176.616 199.379 173.82 213.83 162.722 218.547L43.4918 269.218Z"
    fill="#FFC83D"
  />
  <circle cx="91.6426" cy="162.497" r="9" fill="#F03A17" />
  <circle cx="118.643" cy="198.497" r="9" fill="#00BCF2" />
</svg>
