<svg width="290" height="290" viewBox="0 0 290 290" fill="none" xmlns="http://www.w3.org/2000/svg">
  <path
    d="M60.1274 33.127L33.1274 60.127L118.127 145.127L32.6274 230.627L59.6274 257.627L145.127 172.127L230.627 257.627L257.627 230.627L172.127 145.127L257.627 59.627L230.627 32.627L145.127 118.127L60.1274 33.127Z"
    fill="#FF0000"
  />
  <path
    fill-rule="evenodd"
    clip-rule="evenodd"
    d="M10.5 60.1274L60.1274 10.5L145.127 95.5L230.627 10L280.255 59.6274L194.755 145.127L280.255 230.627L230.627 280.255L145.127 194.755L59.6274 280.255L10 230.627L95.5 145.127L10.5 60.1274ZM118.127 145.127L32.6274 230.627L59.6274 257.627L145.127 172.127L230.627 257.627L257.627 230.627L172.127 145.127L257.627 59.6274L230.627 32.6274L145.127 118.127L60.1274 33.1274L33.1274 60.1274L118.127 145.127Z"
    fill="black"
  />
</svg>
